<svg id="Layer_1" enable-background="new 0 0 256 256" height="512" viewBox="0 0 256 256" width="512" xmlns="http://www.w3.org/2000/svg"><g><path d="m161.178 151.144c-18.485 0-33.524-15.038-33.524-33.523s15.039-33.523 33.524-33.523 33.523 15.038 33.523 33.523-15.038 33.523-33.523 33.523zm0-62.047c-15.728 0-28.524 12.796-28.524 28.523s12.796 28.523 28.524 28.523 28.523-12.796 28.523-28.523-12.795-28.523-28.523-28.523z" fill="#ebe7f2"/><path d="m158.284 140.592c-1.501 0-2.938-.468-4.157-1.354-3.154-2.293-3.854-6.726-1.561-9.879l3.393-4.665h-3.453c-2.673 0-5.088-1.48-6.303-3.863-1.214-2.384-.991-5.208.583-7.371l11.562-15.897c1.111-1.527 2.751-2.531 4.618-2.826 1.865-.292 3.735.154 5.263 1.267 1.528 1.11 2.532 2.75 2.826 4.617.295 1.866-.155 3.735-1.266 5.264l-3.393 4.664h3.454c2.674 0 5.089 1.479 6.303 3.862 1.213 2.384.99 5.207-.582 7.37l-11.563 15.899c-1.327 1.823-3.467 2.912-5.724 2.912zm5.789-40.944c-.109 0-.218.009-.328.025-.547.087-1.028.381-1.354.829l-11.561 15.898c-.461.634-.527 1.462-.171 2.16s1.064 1.133 1.848 1.133h8.363c.94 0 1.801.527 2.228 1.365.426.838.347 1.845-.206 2.605l-6.28 8.635c-.672.924-.467 2.223.457 2.896.908.659 2.246.438 2.896-.457l11.563-15.898c.46-.634.526-1.462.17-2.161-.355-.697-1.063-1.131-1.847-1.131h-8.363c-.94 0-1.801-.527-2.228-1.365s-.347-1.845.206-2.605l6.28-8.635c.326-.448.458-.996.372-1.543s-.381-1.027-.829-1.353c-.36-.261-.782-.398-1.216-.398z" fill="#65c1d6"/><g fill="#846f75"><path d="m225.667 46.958h-195.334c-1.381 0-2.5 1.119-2.5 2.5v124.111c0 1.381 1.119 2.5 2.5 2.5h80.697c1.381 0 2.5-1.119 2.5-2.5s-1.119-2.5-2.5-2.5h-78.197v-119.111h190.333v119.111h-7.358c-1.381 0-2.5 1.119-2.5 2.5s1.119 2.5 2.5 2.5h9.858c1.381 0 2.5-1.119 2.5-2.5v-124.111c.001-1.381-1.119-2.5-2.499-2.5z"/><path d="m73.984 95.207c6.111 0 11.082-4.972 11.082-11.082 0-6.111-4.971-11.083-11.082-11.083s-11.083 4.972-11.083 11.083c.001 6.11 4.973 11.082 11.083 11.082zm0-17.165c3.354 0 6.082 2.729 6.082 6.083s-2.729 6.082-6.082 6.082c-3.354 0-6.083-2.729-6.083-6.082.001-3.354 2.729-6.083 6.083-6.083z"/><path d="m100.317 117.987v-50.11c0-1.381-1.119-2.5-2.5-2.5h-47.666c-1.381 0-2.5 1.119-2.5 2.5v50.11c0 1.381 1.119 2.5 2.5 2.5h47.666c1.381 0 2.5-1.119 2.5-2.5zm-38.758-2.5v-10.457c0-1.394 1.713-2.571 3.742-2.571h17.368c2.028 0 3.742 1.178 3.742 2.571v10.457zm33.758 0h-3.907v-10.457c0-4.175-3.921-7.571-8.742-7.571h-17.368c-4.82 0-8.742 3.396-8.742 7.571v10.457h-3.907v-45.11h42.666z"/><path d="m206.154 113.28c5.018-2.725 5.981-7.892 4.71-11.804-1.271-3.914-5.093-7.532-10.749-6.782-1.828.235-3.559-.506-4.64-1.994-1.081-1.487-1.254-3.367-.462-5.027 2.458-5.154.2-9.9-3.128-12.319-3.329-2.418-8.541-3.098-12.682.832-1.334 1.267-3.173 1.682-4.926 1.114-1.749-.568-2.993-1.988-3.329-3.796 0-.001 0-.001 0-.001-1.041-5.613-5.658-8.126-9.771-8.126s-8.731 2.513-9.771 8.127c-.335 1.808-1.58 3.228-3.329 3.796-1.75.566-3.592.153-4.926-1.114-4.141-3.93-9.353-3.25-12.681-.832-3.329 2.418-5.587 7.165-3.129 12.319.792 1.66.619 3.54-.462 5.027-1.082 1.488-2.816 2.229-4.64 1.994-5.665-.741-9.477 2.869-10.748 6.781-1.271 3.913-.309 9.08 4.709 11.806 1.617.877 2.582 2.499 2.582 4.338 0 1.84-.965 3.462-2.582 4.34-5.017 2.726-5.98 7.893-4.708 11.806 1.271 3.911 5.086 7.523 10.748 6.781 1.822-.235 3.559.506 4.64 1.994 1.081 1.487 1.253 3.367.462 5.027-2.458 5.153-.2 9.899 3.128 12.318 3.329 2.416 8.541 3.1 12.682-.831 1.335-1.267 3.175-1.685 4.925-1.114 1.75.568 2.994 1.987 3.33 3.797 1.041 5.613 5.658 8.126 9.771 8.126s8.731-2.513 9.771-8.127c.335-1.809 1.58-3.228 3.33-3.796 1.749-.572 3.59-.152 4.925 1.114 4.142 3.931 9.354 3.25 12.682.83 3.328-2.418 5.586-7.164 3.128-12.317-.792-1.66-.619-3.54.462-5.027 1.081-1.489 2.814-2.234 4.64-1.994 5.662.743 9.477-2.869 10.748-6.781 1.271-3.913.309-9.08-4.709-11.806-1.616-.878-2.582-2.5-2.582-4.339 0-1.84.965-3.462 2.581-4.34zm-7.581 4.339c0 3.702 1.942 6.968 5.196 8.734 2.664 1.446 2.926 4.063 2.34 5.865-.585 1.802-2.337 3.762-5.34 3.37-3.675-.485-7.161 1.018-9.337 4.012-2.176 2.995-2.523 6.778-.93 10.119 1.305 2.736-.022 5.007-1.554 6.12-1.533 1.114-4.103 1.675-6.302-.412-2.686-2.548-6.389-3.387-9.912-2.243-3.521 1.145-6.026 4.001-6.7 7.641-.553 2.98-2.961 4.038-4.855 4.038s-4.303-1.058-4.855-4.037c-.674-3.641-3.179-6.497-6.7-7.642-1.037-.337-2.09-.502-3.128-.502-2.487 0-4.889.947-6.784 2.745-2.199 2.087-4.769 1.526-6.302.412-1.532-1.113-2.859-3.385-1.555-6.12 1.594-3.341 1.247-7.124-.929-10.119s-5.667-4.491-9.337-4.012c-3.007.4-4.755-1.568-5.341-3.37-.585-1.802-.324-4.419 2.34-5.865 3.253-1.767 5.196-5.032 5.196-8.733 0-3.702-1.942-6.968-5.196-8.734-2.664-1.446-2.925-4.063-2.34-5.864.586-1.803 2.339-3.759 5.341-3.37 3.673.482 7.161-1.018 9.337-4.012 2.176-2.995 2.523-6.778.929-10.119-1.305-2.736.022-5.008 1.555-6.121 1.532-1.113 4.102-1.675 6.301.413 2.686 2.549 6.391 3.387 9.912 2.242s6.025-4 6.7-7.64c.553-2.98 2.961-4.038 4.855-4.038s4.303 1.058 4.855 4.038v-.001c.674 3.641 3.179 6.496 6.7 7.641 3.52 1.144 7.226.307 9.912-2.242 2.2-2.087 4.769-1.526 6.301-.413 1.533 1.113 2.859 3.385 1.555 6.121-1.594 3.341-1.246 7.124.93 10.119s5.665 4.491 9.337 4.012c3.005-.396 4.755 1.568 5.34 3.37.586 1.802.324 4.419-2.34 5.865-3.252 1.765-5.195 5.03-5.195 8.732z"/><path d="m150.187 169.018c-1.292-.492-2.734.165-3.221 1.457l-11.302 29.977-3.655-6.959c-.589-1.122-1.922-1.624-3.108-1.172l-7.339 2.813 9.799-25.99c.487-1.292-.166-2.734-1.458-3.221-1.294-.492-2.734.164-3.221 1.457l-11.763 31.199c-.347.921-.122 1.96.577 2.654.697.694 1.737.917 2.658.562l10.462-4.011 5.21 9.92c.434.826 1.289 1.338 2.213 1.338.051 0 .103-.002.154-.005.982-.061 1.838-.692 2.186-1.613l13.266-35.186c.487-1.292-.166-2.734-1.458-3.22z"/><path d="m195.673 167.38c-.487-1.292-1.927-1.948-3.221-1.457-1.292.486-1.944 1.929-1.458 3.221l9.799 25.99-7.339-2.813c-1.184-.458-2.519.05-3.108 1.172l-3.655 6.959-11.302-29.977c-.488-1.292-1.931-1.949-3.221-1.457-1.292.486-1.944 1.929-1.458 3.221l13.266 35.186c.348.921 1.203 1.553 2.186 1.613.052.003.103.005.154.005.924 0 1.779-.512 2.213-1.338l5.21-9.92 10.462 4.011c.92.355 1.96.133 2.658-.562.698-.694.924-1.733.577-2.654z"/><path d="m97.053 134.524c0-1.381-1.119-2.5-2.5-2.5h-15.458c-1.381 0-2.5 1.119-2.5 2.5s1.119 2.5 2.5 2.5h15.458c1.381 0 2.5-1.119 2.5-2.5z"/><path d="m50.151 137.024h17.798c1.381 0 2.5-1.119 2.5-2.5s-1.119-2.5-2.5-2.5h-17.798c-1.381 0-2.5 1.119-2.5 2.5s1.12 2.5 2.5 2.5z"/><path d="m50.151 150.956h35.596c1.381 0 2.5-1.119 2.5-2.5s-1.119-2.5-2.5-2.5h-35.596c-1.381 0-2.5 1.119-2.5 2.5s1.12 2.5 2.5 2.5z"/></g></g></svg>