<svg id="Layer_1" enable-background="new 0 0 511 511" height="512" viewBox="0 0 511 511" width="512" xmlns="http://www.w3.org/2000/svg"><g><path d="m233.053 199.5-144 144v160h288v-160z" fill="#e2fc85"/><g><path d="m337.053 448h16v15h-16z" fill="#fff"/></g><g><path d="m129.053 464h16v15h-16z" fill="#fff"/></g><path d="m89.053 343.5v32l144-144 144 144v-32l-144-144z" fill="#8ae897"/><path d="m57.053 375.5 176-176 176 176 32-32-208-208-208 208z" fill="#bdedd4"/><g><path d="m169.053 319.5h128v32h-128z" fill="#92a2b5"/><path d="m273.053 319.5h24v32h-24z" fill="#667b93"/><path d="m249.053 415.5v32h-32v-32" fill="#667b93"/><path d="m281.053 351.5v64h-96v-64" fill="#92a2b5"/><path d="m281.053 351.5v64h-24v-64" fill="#667b93"/></g><path d="m313.922 31.542c18.578 18.578 20.064 45.506 4.371 61.198-15.692 15.692-42.62 14.207-61.198-4.371-24.042-24.042-24.042-80.869-24.042-80.869s56.827 0 80.869 24.042z" fill="#e2fc85"/><g><path d="m257.053 32h16v15h-16z" fill="#fff"/></g><path d="m313.922 31.542c-24.042-24.042-80.869-24.042-80.869-24.042s.001 3.434.357 8.962c18.68 1.85 48.692 7.26 64.512 23.08 18.578 18.578 20.064 45.506 4.371 61.198-.63.63-1.284 1.222-1.949 1.796 6.708-1.499 12.909-4.757 17.949-9.796 15.693-15.692 14.207-42.62-4.371-61.198z" fill="#7bdaa9"/><path d="m408.184 79.542c-18.578 18.578-20.064 45.506-4.371 61.198 15.692 15.692 42.62 14.207 61.198-4.371 24.042-24.042 24.042-80.869 24.042-80.869s-56.827 0-80.869 24.042z" fill="#e2fc85"/><g><path d="m449.053 80h16v15h-16z" fill="#fff"/></g><path d="m465.011 136.369c24.042-24.042 24.042-80.869 24.042-80.869s-3.434.001-8.962.357c-1.85 18.679-7.26 48.692-23.08 64.512-18.578 18.578-45.506 20.064-61.198 4.371-.63-.63-1.222-1.284-1.796-1.949 1.499 6.708 4.757 12.909 9.796 17.949 15.692 15.693 42.62 14.207 61.198-4.371z" fill="#7bdaa9"/><g><path d="m321.053 464h16v15h-16z"/><path d="m113.053 448h16v15h-16z"/><path d="m14.447 343.5 42.606 42.606 24.5-24.5v149.394h127.5v-15h-112.5v-149.394l136.5-136.5 50.696 50.697 10.607-10.606-61.304-61.303-176 176-21.392-21.394 197.394-197.394 197.393 197.394-21.394 21.394-102.696-102.697-10.607 10.606 73.804 73.803v149.394h-129v-41h16v-32h32v-64h16v-47h-32v-40.5h-15v40.5h-49v-40.5h-15v40.5h-32v47h16v64h32v32h16v56h159v-149.393l24.5 24.5 42.606-42.607-218.607-218.606zm162.106-16.5h113v17h-113zm16 32h81v49h-81zm32 64h17v17h-17z"/><path d="m489.053 48c-2.447 0-60.232.298-86.173 26.239-10.218 10.218-16.332 23.176-17.217 36.487-.727 10.931 2.09 21.182 8 29.557l-25.11 25.11v-101.893h-15v53.893l-25.11-25.11c5.91-8.375 8.727-18.625 8-29.557-.885-13.311-6.999-26.27-17.217-36.487-25.94-25.941-83.726-26.239-86.173-26.239h-7.5v7.5c0 2.447.298 60.232 26.238 86.172 11.514 11.513 25.981 17.377 39.839 17.377 9.389 0 18.492-2.705 26.205-8.16l35.718 35.718v76.893h15v-28.893l77.804-77.804-10.607-10.606-31.227 31.227c-2.957-5.155-4.323-11.233-3.893-17.703.644-9.684 5.21-19.228 12.857-26.875 16.564-16.564 52.015-20.571 67.758-21.538-.968 15.747-4.975 51.196-21.538 67.759-9.479 9.479-22.06 14.204-33.649 12.637l-2.01 14.865c2.119.286 4.257.427 6.4.427 14.247 0 28.767-6.224 39.866-17.323 25.94-25.94 26.238-83.725 26.238-86.172v-7.501zm-226.654 35.066c-16.564-16.564-20.571-52.016-21.538-67.759 15.746.968 51.195 4.975 67.758 21.538 7.647 7.647 12.214 17.192 12.857 26.875.43 6.47-.936 12.547-3.893 17.703l-31.227-31.226-10.606 10.606 31.23 31.23c-13.1 7.54-31.35 4.265-44.581-8.967z"/></g></g></svg>