<svg height="512" viewBox="0 0 64 64" width="512" xmlns="http://www.w3.org/2000/svg"><g id="flat"><path d="m5 15h54a2 2 0 0 1 2 2v34a0 0 0 0 1 0 0h-58a0 0 0 0 1 0 0v-34a2 2 0 0 1 2-2z" fill="#5ac6aa"/><path d="m3 51h58v6h-58z" fill="#394d5c"/><path d="m8 57h10v4h-10z" fill="#7d8d9c"/><path d="m46 57h10v4h-10z" fill="#7d8d9c"/><path d="m12 19h16v32h-16z" fill="#72edc5"/><path d="m16 23h8v8h-8z" fill="#f4f4e6"/><path d="m28 19h6v32h-6z" fill="#388e75"/><path d="m34 19h20v32h-20z" fill="#72edc5"/><path d="m8 22h4v4h-4z" fill="#388e75"/><path d="m8 42h4v4h-4z" fill="#388e75"/><g fill="#fcf05a"><path d="m43 23h5l-3 5h5l-7 9v-5h-5z"/><path d="m15 34h10v2h-10z"/><path d="m15 38h4v2h-4z"/><path d="m21 38h4v2h-4z"/></g><path d="m50 48h-3v-2h2v-5h2v6a1 1 0 0 1 -1 1z" fill="#f4f4e6"/><path d="m43 46h2v2h-2z" fill="#f4f4e6"/><path d="m39 46h2v2h-2z" fill="#f4f4e6"/><path d="m35 7h18v4h-18z" fill="#7d8d9c"/><path d="m37 11h4v4h-4z" fill="#394d5c"/><path d="m47 11h4v4h-4z" fill="#394d5c"/><path d="m55 10h-2v-2h2a1 1 0 0 0 1-1v-5h2v5a3 3 0 0 1 -3 3z" fill="#32b1cc"/></g></svg>