<svg id="Capa_1" enable-background="new 0 0 512 512" height="512" viewBox="0 0 512 512" width="512" xmlns="http://www.w3.org/2000/svg"><g><g><g fill="#107295"><path d="m373.607 178.537h-9.284c-5.523 0-10-4.477-10-10v-93.77c0-5.523 4.477-10 10-10h9.284c5.523 0 10 4.477 10 10v93.77c0 5.522-4.477 10-10 10z"/><path d="m118.393 178.537h-9.284c-5.523 0-10-4.477-10-10v-93.77c0-5.523 4.477-10 10-10h9.284c5.523 0 10 4.477 10 10v93.77c0 5.522-4.477 10-10 10z"/></g><g><path d="m266.04 17.5v487h-49.37v-487c0-5.52 4.48-10 10-10h29.37c5.52 0 10 4.48 10 10z" fill="#d9e8ef"/><g><g><g><path d="m266.04 405.7v15.46c-18.2-4.53-34.66-9.41-49.37-14.33v-15.84c14.58 5.02 31.04 10.04 49.37 14.71z" fill="#bad5e4"/></g><g><g><path d="m266.04 223.59v15.6c-17.33-4.78-33.83-10.25-49.37-16.37v-16.16c16.07 6.59 32.62 12.19 49.37 16.93z" fill="#bad5e4"/></g></g></g></g><g fill="#bad5e4"><path d="m216.674 304.786h49.367v46.389h-49.367z"/><path d="m216.674 39.498h49.367v61.611h-49.367z"/><path d="m216.674 145.323h49.367v28.268h-49.367z"/></g><path d="m216.674 427.463h49.367v33.665h-49.367z" fill="#fb8627"/></g><g><path d="m280.248 59.825h-77.781c-5.523 0-10-4.477-10-10v-6.859c0-5.523 4.477-10 10-10h77.781c5.523 0 10 4.477 10 10v6.859c0 5.523-4.477 10-10 10z" fill="#6fabc9"/><path d="m290.25 42.97v6.86c0 5.52-4.48 10-10 10h-24.69c5.53 0 10-4.48 10-10v-6.86c0-5.53-4.47-10-10-10h24.69c5.52 0 10 4.47 10 10z" fill="#3b93ba"/></g><g><path d="m386.961 149.873h-291.206c-5.523 0-10-4.477-10-10v-41.852c0-5.523 4.477-10 10-10h291.206c5.523 0 10 4.477 10 10v41.852c0 5.523-4.477 10-10 10z" fill="#6fabc9"/><path d="m396.96 98.02v41.85c0 5.53-4.48 10-10 10h-24.68c5.52 0 10-4.47 10-10v-41.85c0-5.52-4.48-10-10-10h24.68c5.52 0 10 4.48 10 10z" fill="#3b93ba"/><path d="m397.248 114.88h-311.78c-5.523 0-10-4.477-10-10v-6.859c0-5.523 4.477-10 10-10h311.781c5.523 0 10 4.477 10 10v6.859c-.001 5.523-4.478 10-10.001 10z" fill="#bad5e4"/><path d="m407.25 98.02v6.86c0 5.52-4.48 10-10 10h-24.69c5.53 0 10-4.48 10-10v-6.86c0-5.52-4.47-10-10-10h24.69c5.52 0 10 4.48 10 10z" fill="#8bbbd3"/></g><g fill="#107295"><path d="m403.607 368.386h-9.284c-5.523 0-10-4.477-10-10v-114.77c0-5.523 4.477-10 10-10h9.284c5.523 0 10 4.477 10 10v114.77c0 5.523-4.477 10-10 10z"/><path d="m88.393 368.386h-9.284c-5.523 0-10-4.477-10-10v-114.77c0-5.523 4.477-10 10-10h9.284c5.523 0 10 4.477 10 10v114.77c0 5.523-4.477 10-10 10z"/></g><g><path d="m416.961 327.723h-351.206c-5.523 0-10-4.477-10-10v-41.853c0-5.523 4.477-10 10-10h351.206c5.523 0 10 4.477 10 10v41.852c0 5.524-4.477 10.001-10 10.001z" fill="#6fabc9"/><path d="m426.96 275.87v41.85c0 5.53-4.48 10-10 10h-24.68c5.52 0 10-4.47 10-10v-41.85c0-5.52-4.48-10-10-10h24.68c5.52 0 10 4.48 10 10z" fill="#3b93ba"/><path d="m427.248 292.729h-371.78c-5.523 0-10-4.477-10-10v-6.859c0-5.523 4.477-10 10-10h371.781c5.523 0 10 4.477 10 10v6.859c-.001 5.523-4.478 10-10.001 10z" fill="#bad5e4"/><path d="m437.25 275.87v6.86c0 5.52-4.48 10-10 10h-24.69c5.53 0 10-4.48 10-10v-6.86c0-5.52-4.47-10-10-10h24.69c5.52 0 10 4.48 10 10z" fill="#8bbbd3"/></g></g><path d="m466.532 417.406c-77.809 0-142.186-9.517-192.99-21.855v-12.099c0-4.142-3.357-7.5-7.5-7.5s-7.5 3.358-7.5 7.5v8.277c-12.357-3.302-23.814-6.744-34.367-10.217v-46.289h34.367v15.568c0 4.142 3.357 7.5 7.5 7.5s7.5-3.358 7.5-7.5v-15.568h103.278v23.167c0 9.649 7.851 17.5 17.5 17.5h9.289c9.649 0 17.5-7.851 17.5-17.5v-13.705c8.892 7.217 22.563 17.004 41.847 27.45 1.136.615 2.359.907 3.565.907 2.664 0 5.244-1.423 6.602-3.929 1.973-3.642.619-8.194-3.022-10.167-20.191-10.937-33.832-21.1-41.867-27.858 3.803-3.213 6.228-8.009 6.228-13.365v-19.067c6.057-2.755 10.287-8.85 10.287-15.926v-6.859c0-9.649-7.851-17.5-17.5-17.5h-6.139v-7.868c14.8.7 30.05 1.055 45.423 1.055 4.143 0 7.5-3.358 7.5-7.5s-3.357-7.5-7.5-7.5c-16.105 0-32.063-.399-47.493-1.178-2.952-5.505-8.759-9.259-15.43-9.259h-9.289c-5.462 0-10.344 2.518-13.556 6.451-41.938-4.063-77.52-10.956-107.223-18.95v-56.248h7.807c4.143 0 7.5-3.358 7.5-7.5s-3.357-7.5-7.5-7.5h-185.593c-1.379 0-2.5-1.122-2.5-2.5v-17.494h27.638v5.406c0 4.142 3.357 7.5 7.5 7.5s7.5-3.358 7.5-7.5v-5.406h11.735v5.406c0 4.142 3.357 7.5 7.5 7.5s7.5-3.358 7.5-7.5v-5.406h157.458v5.406c0 4.142 3.357 7.5 7.5 7.5s7.5-3.358 7.5-7.5v-5.406h11.736v5.406c0 4.142 3.357 7.5 7.5 7.5s7.5-3.358 7.5-7.5v-5.406h27.638v17.493c0 1.378-1.121 2.5-2.5 2.5h-72.951c-4.143 0-7.5 3.358-7.5 7.5s3.357 7.5 7.5 7.5h32.811v11.167c0 9.649 7.851 17.5 17.5 17.5h9.289c9.649 0 17.5-7.851 17.5-17.5v-1.695c13.018 10.571 36.29 26.646 72.453 42.214.967.417 1.973.613 2.962.613 2.905 0 5.671-1.699 6.893-4.536 1.638-3.805-.118-8.217-3.923-9.854-36.964-15.913-59.797-32.437-71.251-42.052 3.797-3.213 6.218-8.005 6.218-13.356v-19.067c6.057-2.755 10.287-8.85 10.287-15.926v-6.859c0-9.649-7.851-17.5-17.5-17.5h-6.139v-5.752c0-9.649-7.851-17.5-17.5-17.5h-9.289c-9.649 0-17.5 7.851-17.5 17.5v5.751h-73.28v-13.195h6.708c9.649 0 17.5-7.851 17.5-17.5v-6.859c0-9.649-7.851-17.5-17.5-17.5h-6.708v-7.967c0-9.649-7.851-17.5-17.5-17.5h-29.37c-9.649 0-17.5 7.851-17.5 17.5v7.966h-6.702c-9.649 0-17.5 7.851-17.5 17.5v6.859c0 9.649 7.851 17.5 17.5 17.5h6.702v13.195h-73.28v-5.75c0-9.649-7.851-17.5-17.5-17.5h-9.279c-9.649 0-17.5 7.851-17.5 17.5v5.751h-6.143c-9.649 0-17.5 7.851-17.5 17.5v6.859c0 7.077 4.23 13.172 10.288 15.926v19.066c0 8.219 5.703 15.114 13.354 16.983v11.684c0 9.649 7.851 17.5 17.5 17.5h9.279c9.649 0 17.5-7.851 17.5-17.5v-2.05c9.513 7.492 24.532 17.86 46.083 28.81 7.822 3.974 16.884 8.193 27.202 12.461v50.608h-35.782c-4.143 0-7.5 3.358-7.5 7.5s3.357 7.5 7.5 7.5h253.855c1.379 0 2.5 1.122 2.5 2.5v6.859c0 1.378-1.121 2.5-2.5 2.5h-371.78c-1.379 0-2.5-1.122-2.5-2.5v-6.859c0-1.378 1.121-2.5 2.5-2.5h85.264c4.143 0 7.5-3.358 7.5-7.5s-3.357-7.5-7.5-7.5h-34.842v-14.75c0-9.649-7.851-17.5-17.5-17.5h-9.28c-9.649 0-17.5 7.851-17.5 17.5v14.75h-6.143c-9.649 0-17.5 7.851-17.5 17.5v6.859c0 7.076 4.23 13.171 10.287 15.926v19.067c0 8.219 5.704 15.115 13.355 16.983v23.684c0 9.649 7.851 17.5 17.5 17.5h9.279c9.649 0 17.5-7.851 17.5-17.5v-15.924c14.015 9.459 40.13 25.1 79.269 40.809 7.339 2.946 15.357 5.966 24.017 8.989v112.239c0 4.142 3.357 7.5 7.5 7.5s7.5-3.358 7.5-7.5v-35.872h34.367v35.872c0 4.142 3.357 7.5 7.5 7.5s7.5-3.358 7.5-7.5v-93.523c51.301 12.178 115.692 21.429 192.99 21.429 4.143 0 7.5-3.358 7.5-7.5s-3.356-7.5-7.499-7.5zm-72.212-176.286h9.289c1.379 0 2.5 1.122 2.5 2.5v14.75h-14.289v-14.75c0-1.378 1.121-2.5 2.5-2.5zm-17.5 6.136v11.115h-103.278v-29.232c29.067 7.602 63.372 14.122 103.278 18.117zm-118.278-37.896c-12.659-3.807-24.088-7.78-34.367-11.751v-40.235h34.367zm115.067-38.32h-9.289c-1.379 0-2.5-1.122-2.5-2.5v-11.167h14.289v11.167c0 1.378-1.121 2.5-2.5 2.5zm-11.789-96.27c0-1.378 1.121-2.5 2.5-2.5h9.289c1.379 0 2.5 1.122 2.5 2.5v5.751h-14.289zm-137.65-57.27c0-1.378 1.121-2.5 2.5-2.5h29.37c1.379 0 2.5 1.122 2.5 2.5v7.966h-34.37zm-24.202 32.326v-6.859c0-1.378 1.121-2.5 2.5-2.5h77.78c1.379 0 2.5 1.122 2.5 2.5v6.859c0 1.378-1.121 2.5-2.5 2.5h-77.78c-1.379 0-2.5-1.122-2.5-2.5zm24.202 17.5h34.37v13.195h-34.37zm-117.56 7.444c0-1.378 1.121-2.5 2.5-2.5h9.279c1.379 0 2.5 1.122 2.5 2.5v5.751h-14.279zm-23.642 23.251c0-1.378 1.121-2.5 2.5-2.5h311.78c1.379 0 2.5 1.122 2.5 2.5v6.859c0 1.378-1.121 2.5-2.5 2.5h-311.78c-1.379 0-2.5-1.122-2.5-2.5zm35.422 73.019h-9.279c-1.379 0-2.5-1.122-2.5-2.5v-11.167h14.279v11.167c0 1.378-1.121 2.5-2.5 2.5zm71.346 11.378c-18.509-9.331-31.98-18.239-41.052-25.045h60.491v34.111c-7.184-3.104-13.662-6.154-19.439-9.066zm34.439 31.228c10.386 3.861 21.828 7.69 34.367 11.347v33.376h-34.367zm-147.565 29.974c0-1.378 1.121-2.5 2.5-2.5h9.279c1.379 0 2.5 1.122 2.5 2.5v14.75h-14.279zm-10.855 76.603c-1.379 0-2.5-1.122-2.5-2.5v-17.493h27.639v5.406c0 4.142 3.357 7.5 7.5 7.5s7.5-3.358 7.5-7.5v-5.406h11.735v5.406c0 4.142 3.357 7.5 7.5 7.5s7.5-3.358 7.5-7.5v-5.406h217.458v5.406c0 4.142 3.357 7.5 7.5 7.5s7.5-3.358 7.5-7.5v-5.406h11.736v5.406c0 4.142 3.357 7.5 7.5 7.5s7.5-3.358 7.5-7.5v-5.406h27.638v17.493c0 1.378-1.121 2.5-2.5 2.5zm337.854 40.667h-9.289c-1.379 0-2.5-1.122-2.5-2.5v-23.167h14.289v23.167c0 1.379-1.121 2.5-2.5 2.5zm-315.219 0h-9.28c-1.379 0-2.5-1.122-2.5-2.5v-23.167h14.28v23.167c0 1.379-1.121 2.5-2.5 2.5zm103.151 8.783c-31.59-12.621-54.58-25.326-69.179-34.45h86.813v41.13c-6.251-2.249-12.142-4.486-17.634-6.68zm32.634 83.955v-18.666h34.367v18.666zm34.367-33.666h-34.367v-22.685c10.617 3.4 22.071 6.753 34.367 9.961z"/></g></svg>